<svg width="79" height="78" viewBox="0 0 79 78" fill="none" xmlns="http://www.w3.org/2000/svg">
<g filter="url(#filter0_d_775_1833)">
<g clip-path="url(#clip0_775_1833)">
<rect x="3.42676" y="2" width="72" height="72" rx="24.1943" fill="#F4D150"/>
<path d="M3.42676 23.7749C3.42676 11.7489 13.1757 2 25.2016 2H53.6519C65.6778 2 75.4268 11.7489 75.4268 23.7749V52.2251C75.4268 64.2511 65.6778 74 53.6519 74H25.2016C13.1757 74 3.42676 64.2511 3.42676 52.2251V23.7749Z" fill="#FFD600"/>
<g clip-path="url(#clip1_775_1833)">
<rect width="73.646" height="74.0726" transform="translate(3.42676 2)" fill="white"/>
<g clip-path="url(#clip2_775_1833)">
<rect width="74.5703" height="74.5703" transform="translate(3.42676 2)" fill="#F4D150"/>
<path d="M51.6768 72.4091C48.851 68.4843 46.64 60.8965 46.3784 57.1027L32.936 51.3135L27.3433 72.4091H51.6768Z" fill="#F9C9B6" stroke="black" stroke-width="0.784951"/>
<mask id="mask0_775_1833" style="mask-type:alpha" maskUnits="userSpaceOnUse" x="27" y="51" width="115" height="109">
<path d="M141.224 159.224C127.999 140.857 117.652 96.162 116.427 78.4065L53.5174 51.3135L27.3433 159.224H141.224Z" fill="#F9C9B6"/>
</mask>
<g mask="url(#mask0_775_1833)">
</g>
<mask id="mask1_775_1833" style="mask-type:alpha" maskUnits="userSpaceOnUse" x="24" y="14" width="34" height="45">
<path fill-rule="evenodd" clip-rule="evenodd" d="M27.931 46.6455C30.0118 54.6723 38.1491 59.5851 46.2472 57.6448C54.3453 55.7046 59.3728 47.6376 57.5903 39.5394L57.5934 39.5387L54.2984 25.786C54.2934 25.7644 54.2882 25.7427 54.2829 25.7211C54.2779 25.6995 54.2727 25.678 54.2674 25.6564L54.2591 25.6219H54.2589C52.2539 17.4888 44.0556 12.4878 35.897 14.4425C27.7386 16.3973 22.6967 24.5703 24.5952 32.7291L24.5946 32.7292L27.829 46.2287C27.8396 46.2746 27.8503 46.3204 27.8613 46.3663C27.8722 46.4121 27.8834 46.4579 27.8949 46.5037L27.9289 46.646L27.931 46.6455Z" fill="white"/>
</mask>
<g mask="url(#mask1_775_1833)">
<path fill-rule="evenodd" clip-rule="evenodd" d="M27.931 46.6455C30.0118 54.6723 38.1491 59.5851 46.2472 57.6448C54.3453 55.7046 59.3728 47.6376 57.5903 39.5394L57.5934 39.5387L54.2984 25.786C54.2934 25.7644 54.2882 25.7427 54.2829 25.7211C54.2779 25.6995 54.2727 25.678 54.2674 25.6564L54.2591 25.6219H54.2589C52.2539 17.4888 44.0556 12.4878 35.897 14.4425C27.7386 16.3973 22.6967 24.5703 24.5952 32.7291L24.5946 32.7292L27.829 46.2287C27.8396 46.2746 27.8503 46.3204 27.8613 46.3663C27.8722 46.4121 27.8834 46.4579 27.8949 46.5037L27.9289 46.646L27.931 46.6455Z" fill="#F9C9B6"/>
<path d="M27.9305 46.6455L28.6902 46.4485L28.4969 45.7029L27.748 45.8821L27.9305 46.6455ZM57.5898 39.5394L57.4065 38.7761L56.6575 38.956L56.8231 39.7081L57.5898 39.5394ZM57.5929 39.5387L57.7762 40.302L58.5391 40.1188L58.3562 39.3557L57.5929 39.5387ZM54.298 25.786L53.5338 25.9655L53.5345 25.9688L54.298 25.786ZM54.2825 25.7211L53.5192 25.9039L54.2825 25.7211ZM54.267 25.6563L53.5035 25.8392L53.5044 25.8425L54.267 25.6563ZM54.2586 25.6219L55.0219 25.4389L54.8392 24.6763L54.0764 24.8583L54.2586 25.6219ZM54.2585 25.6219L53.4964 25.8098L53.6828 26.5663L54.4407 26.3854L54.2585 25.6219ZM35.8966 14.4425L36.0796 15.2059L35.8966 14.4425ZM24.5947 32.729L24.7772 33.4925L25.5359 33.311L25.3592 32.5513L24.5947 32.729ZM24.5941 32.7292L24.4115 31.9657L23.6479 32.1486L23.8308 32.912L24.5941 32.7292ZM27.8285 46.2287L28.5934 46.0527L28.5918 46.0458L27.8285 46.2287ZM27.8944 46.5037L28.6577 46.3207L28.6561 46.3138L27.8944 46.5037ZM27.9284 46.646L27.1651 46.8288L27.348 47.5918L28.111 47.4094L27.9284 46.646ZM27.1706 46.8425C29.3587 55.2827 37.9146 60.4483 46.4296 58.4082L46.0638 56.8815C38.3826 58.7219 30.664 54.0618 28.6902 46.4485L27.1706 46.8425ZM46.4296 58.4082C54.9447 56.3681 60.2306 47.8859 58.3564 39.3706L56.8231 39.7081C58.5139 47.3893 53.7451 55.0411 46.0638 56.8815L46.4296 58.4082ZM57.4098 38.7754L57.4065 38.7761L57.773 40.3027L57.7762 40.302L57.4098 38.7754ZM53.5345 25.9688L56.8296 39.7215L58.3562 39.3557L55.0613 25.603L53.5345 25.9688ZM55.062 25.6062C55.0567 25.5836 55.0513 25.5609 55.0459 25.5382L53.5192 25.9039C53.5241 25.9245 53.529 25.9449 53.5338 25.9655L55.062 25.6062ZM55.0459 25.5382C55.0404 25.5156 55.035 25.4929 55.0295 25.4702L53.5044 25.8425C53.5093 25.8631 53.5142 25.8835 53.5192 25.9039L55.0459 25.5382ZM53.4953 25.8047L53.5035 25.8392L55.0303 25.4735L55.0219 25.4389L53.4953 25.8047ZM54.4407 26.3854H54.4409L54.0764 24.8583L54.0762 24.8584L54.4407 26.3854ZM55.0206 25.434C52.9123 16.8822 44.2921 11.6239 35.7137 13.6792L36.0796 15.2059C43.8182 13.3518 51.5945 18.0954 53.4964 25.8098L55.0206 25.434ZM35.7137 13.6792C27.1353 15.7345 21.8341 24.3283 23.83 32.907L25.3592 32.5513C23.5586 24.8125 28.3409 17.06 36.0796 15.2059L35.7137 13.6792ZM24.7768 33.4926L24.7772 33.4925L24.412 31.9657H24.4115L24.7768 33.4926ZM28.5918 46.0458L25.3575 32.5463L23.8308 32.912L27.0652 46.4115L28.5918 46.0458ZM27.0636 46.4046C27.0746 46.4528 27.0859 46.501 27.0974 46.5492L28.6242 46.1835C28.6137 46.1398 28.6034 46.0962 28.5934 46.0527L27.0636 46.4046ZM27.0974 46.5492C27.109 46.5973 27.1208 46.6455 27.1328 46.6934L28.6561 46.3138C28.6452 46.2704 28.6346 46.227 28.6242 46.1835L27.0974 46.5492ZM28.6919 46.4631L28.6577 46.3207L27.131 46.6865L27.1651 46.8288L28.6919 46.4631ZM27.748 45.8821L27.7459 45.8825L28.111 47.4094L28.1131 47.409L27.748 45.8821Z" fill="black"/>
<path d="M40.5049 44.8469C40.9386 47.7493 45.8824 49.1152 50.3928 45.7861" stroke="black" stroke-width="0.823981"/>
</g>
</g>
<path d="M46.2358 26.9057C47.334 26.3888 49.9181 25.9174 51.4685 28.1655" stroke="black" stroke-width="0.784951" stroke-linecap="round"/>
<path d="M31.6177 31.8102C32.019 30.6647 33.4942 28.4913 36.1843 28.9616" stroke="black" stroke-width="0.784951" stroke-linecap="round"/>
<path d="M36.7426 35.8205C37.6992 35.7068 38.3723 34.753 38.246 33.6901C38.1197 32.6273 37.2419 31.8578 36.2853 31.9714C35.3287 32.0851 34.6556 33.0389 34.7819 34.1018C34.9082 35.1646 35.7861 35.9341 36.7426 35.8205Z" fill="white"/>
<path d="M49.1341 33.8836C50.0916 33.7783 50.773 32.8305 50.656 31.7665C50.539 30.7026 49.6679 29.9255 48.7104 30.0308C47.7528 30.1361 47.0714 31.0839 47.1884 32.1479C47.3054 33.2118 48.1765 33.9889 49.1341 33.8836Z" fill="white"/>
<path d="M48.9521 32.9249C49.4684 32.9249 49.887 32.5063 49.887 31.9899C49.887 31.4735 49.4684 31.0549 48.9521 31.0549C48.4357 31.0549 48.0171 31.4735 48.0171 31.9899C48.0171 32.5063 48.4357 32.9249 48.9521 32.9249Z" fill="#557CFF"/>
<path d="M43.1914 33.9482C43.569 36.6351 45.2091 38.5574 45.2091 38.5574C45.2091 38.5574 44.6993 39.8034 42.7261 39.6892" stroke="black" stroke-width="0.784951"/>
<path d="M39.2168 10.6789L39.2315 10.6804L39.2464 10.6809C44.3797 10.8319 48.0247 13.3488 51.2937 16.319C52.1113 17.0618 52.9027 17.8306 53.6887 18.5972C53.7406 18.6479 53.7926 18.6987 53.8446 18.7494C54.5765 19.4634 55.3052 20.1744 56.0405 20.852C57.4228 22.1256 58.8443 23.2967 60.3947 24.1753C60.0944 24.3005 59.7297 24.4201 59.3031 24.5325C58.5357 24.7347 57.5996 24.906 56.5424 25.0498C54.4282 25.3373 51.8586 25.5115 49.2424 25.6129C44.0117 25.8154 38.6283 25.7257 36.4014 25.6772L35.2244 25.6516L36.1559 26.3714C37.079 27.0846 38.5484 27.5776 39.869 27.8701C40.5371 28.018 41.1839 28.1182 41.7291 28.169C41.771 28.173 41.8127 28.1765 41.8537 28.1799C39.7301 29.7018 36.7426 30.6155 33.7565 31.2053C31.4426 31.6623 29.1928 31.9155 27.3854 32.1189C26.5273 32.2154 25.769 32.3007 25.1507 32.3914L24.7341 32.4524L24.8293 32.8624C25.4781 35.6588 26.6707 40.5471 27.4705 43.8257C27.7008 44.7694 27.8984 45.5796 28.0413 46.1684C26.3314 43.6448 24.2311 40.3207 22.6027 36.6906C20.2417 31.4275 18.9204 25.6245 21.1035 20.7228C23.1073 16.2239 26.6593 13.6113 30.2122 12.1716C33.7735 10.7285 37.3092 10.4756 39.2168 10.6789ZM31.9878 53.0157L31.9246 52.8538C31.9554 52.884 31.9861 52.9134 32.0164 52.9422L31.9878 53.0157Z" fill="black" stroke="black" stroke-width="0.784951"/>
<path d="M36.5824 34.9393C37.0988 34.9393 37.5174 34.5207 37.5174 34.0043C37.5174 33.4879 37.0988 33.0693 36.5824 33.0693C36.0661 33.0693 35.6475 33.4879 35.6475 34.0043C35.6475 34.5207 36.0661 34.9393 36.5824 34.9393Z" fill="#557CFF"/>
<path d="M29.1802 36.6028V36.386L28.9952 36.2726C28.2716 35.8285 27.3917 35.5854 26.4824 35.5854C25.3892 35.5854 24.3659 35.9242 23.6369 36.6116C22.8997 37.307 22.502 38.3235 22.6076 39.5906C22.7106 40.8255 23.1251 41.7344 23.8126 42.3383C23.7562 42.5319 23.7396 42.7407 23.7656 42.9604C23.8412 43.5939 24.1614 44.0503 24.6562 44.3315C25.1279 44.5996 25.7317 44.6943 26.3746 44.6943C27.4366 44.6943 28.3676 44.1232 29.0767 43.3592L29.1802 43.2477V43.0956V36.6028Z" stroke="black" stroke-width="0.784951"/>
<path fill-rule="evenodd" clip-rule="evenodd" d="M30.3379 39.6505C30.3516 39.5247 30.3586 39.397 30.3586 39.2677C30.3586 37.2875 28.5162 35.9729 26.4825 35.9729C24.4488 35.9729 22.8002 37.2327 22.994 39.5584C23.1018 40.8525 23.5649 41.7042 24.283 42.2168C24.169 42.4152 24.119 42.6482 24.1507 42.9143C24.2727 43.9379 25.1466 44.3064 26.3748 44.3064C28.5276 44.3064 30.2308 41.5827 30.3379 39.6505Z" fill="#F9C9B6"/>
<path d="M27.3387 37.62C26.5635 37.2648 24.858 37.0774 24.2378 39.1706" stroke="black" stroke-width="0.784951"/>
<path d="M25.3042 37.7173C25.7241 38.0726 26.5253 39.1708 26.3702 40.7212" stroke="black" stroke-width="0.784951"/>
<path d="M66.5857 76.0728H13.4224C16.5948 70.0829 21.1066 66.277 28.4222 64.5328C31.5334 63.791 35.1583 63.4209 39.4116 63.4209C41.2476 63.4209 42.6765 63.7137 44.0331 64.1005C44.535 64.2435 45.0401 64.4041 45.5569 64.5683C46.4131 64.8403 47.3016 65.1227 48.2624 65.3534L48.2907 65.3601L48.3195 65.3626C57.2983 66.137 62.6787 70.3146 66.5857 76.0728Z" fill="#00C3C0" stroke="black" stroke-width="0.784951"/>
<path d="M26.26 64.9629L28.0338 61.1649C28.0763 61.0742 28.1816 61.0311 28.276 61.0645C35.6263 63.6663 42.3131 63.483 48.5099 61.7581C48.5878 61.7363 48.6712 61.765 48.7189 61.8304L51.4191 65.5229C51.4933 65.6244 51.4555 65.7675 51.3385 65.8135C44.8253 68.3711 32.6037 67.9363 26.3538 65.2193C26.2547 65.1761 26.2142 65.0608 26.26 64.9629Z" fill="white" stroke="black" stroke-width="0.784951"/>
</g>
</g>
</g>
<defs>
<filter id="filter0_d_775_1833" x="0.426758" y="0" width="78" height="78" filterUnits="userSpaceOnUse" color-interpolation-filters="sRGB">
<feFlood flood-opacity="0" result="BackgroundImageFix"/>
<feColorMatrix in="SourceAlpha" type="matrix" values="0 0 0 0 0 0 0 0 0 0 0 0 0 0 0 0 0 0 127 0" result="hardAlpha"/>
<feOffset dy="1"/>
<feGaussianBlur stdDeviation="1.5"/>
<feComposite in2="hardAlpha" operator="out"/>
<feColorMatrix type="matrix" values="0 0 0 0 0 0 0 0 0 0 0 0 0 0 0 0 0 0 0.11 0"/>
<feBlend mode="normal" in2="BackgroundImageFix" result="effect1_dropShadow_775_1833"/>
<feBlend mode="normal" in="SourceGraphic" in2="effect1_dropShadow_775_1833" result="shape"/>
</filter>
<clipPath id="clip0_775_1833">
<rect x="3.42676" y="2" width="72" height="72" rx="24.1943" fill="white"/>
</clipPath>
<clipPath id="clip1_775_1833">
<rect width="73.646" height="74.0726" fill="white" transform="translate(3.42676 2)"/>
</clipPath>
<clipPath id="clip2_775_1833">
<rect width="74.5703" height="74.5703" fill="white" transform="translate(3.42676 2)"/>
</clipPath>
</defs>
</svg>
