<svg width="73" height="73" viewBox="0 0 73 73" fill="none" xmlns="http://www.w3.org/2000/svg">
<g filter="url(#filter0_ii_786_772)">
<g clip-path="url(#clip0_786_772)">
<g filter="url(#filter1_ii_786_772)">
<path d="M36.816 72.2014C52.6352 72.2014 61.4292 72.2014 67.173 66.4577C72.9168 60.7139 72.9168 51.9198 72.9168 36.1007C72.9168 20.2816 72.9168 11.4875 67.173 5.74375C61.4292 -9.56342e-07 52.6352 0 36.816 0C20.9969 0 12.2028 -9.56342e-07 6.45908 5.74375C0.715331 11.4875 0.715332 20.2816 0.715332 36.1007C0.715332 51.9198 0.715331 60.7139 6.45908 66.4577C12.2028 72.2014 20.9969 72.2014 36.816 72.2014Z" fill="url(#paint0_radial_786_772)"/>
</g>
<path fill-rule="evenodd" clip-rule="evenodd" d="M30.379 31.8075C30.379 31.4957 30.633 31.2301 30.9563 31.2301H41.5772C41.9004 31.2301 42.1544 31.4957 42.1544 31.8075V32.9623C42.1544 33.1155 42.0936 33.2623 41.9853 33.3706C41.8771 33.4789 41.7303 33.5397 41.5772 33.5397H30.9563C30.8032 33.5397 30.6564 33.4789 30.5481 33.3706C30.4399 33.2623 30.379 33.1155 30.379 32.9623V31.8075ZM26.4193 25.2942C26.4607 25.2561 26.4923 25.2085 26.5112 25.1555C26.5302 25.1025 26.5359 25.0457 26.528 24.99C26.52 24.9342 26.4986 24.8813 26.4656 24.8357C26.4326 24.7901 26.3889 24.7533 26.3385 24.7283L22.2171 22.5341C22.1402 22.4944 22.081 22.4273 22.0511 22.3461C22.0212 22.2649 22.0228 22.1754 22.0555 22.0953L24.8954 15.0277C25.0224 14.6928 24.6068 14.4041 24.3413 14.6466L15.3943 22.7305C15.3532 22.7653 15.3208 22.8093 15.2997 22.859C15.2785 22.9086 15.2693 22.9625 15.2726 23.0163C15.276 23.0701 15.2919 23.1224 15.319 23.1691C15.3462 23.2157 15.3838 23.2553 15.4289 23.2848L19.4002 25.9756C19.4657 26.0199 19.5139 26.0854 19.537 26.161C19.5601 26.2366 19.5567 26.3179 19.5272 26.3913L16.9413 32.9854C16.8027 33.3319 17.2183 33.609 17.4954 33.3665L26.4193 25.2826V25.2942Z" fill="white"/>
<g style="mix-blend-mode:overlay">
<path d="M36.816 72.2014C52.6352 72.2014 61.4292 72.2014 67.173 66.4577C72.9168 60.7139 72.9168 51.9198 72.9168 36.1007C72.9168 20.2816 72.9168 11.4875 67.173 5.74375C61.4292 -9.56342e-07 52.6352 0 36.816 0C20.9969 0 12.2028 -9.56342e-07 6.45908 5.74375C0.715331 11.4875 0.715332 20.2816 0.715332 36.1007C0.715332 51.9198 0.715331 60.7139 6.45908 66.4577C12.2028 72.2014 20.9969 72.2014 36.816 72.2014Z" fill="url(#paint1_linear_786_772)"/>
</g>
<path d="M36.816 72.2014C52.6352 72.2014 61.4292 72.2014 67.173 66.4577C72.9168 60.7139 72.9167 51.9198 72.9167 36.1007C72.9167 20.2816 72.9168 11.4875 67.173 5.74375C61.4292 -1.11059e-06 52.6352 0 36.816 0C20.9969 0 12.2028 -1.11059e-06 6.45908 5.74375C0.715331 11.4875 0.715332 20.2816 0.715332 36.1007C0.715332 51.9198 0.715331 60.7139 6.45908 66.4577C12.2028 72.2014 20.9969 72.2014 36.816 72.2014Z" fill="url(#paint2_linear_786_772)"/>
<g style="mix-blend-mode:soft-light" filter="url(#filter2_f_786_772)">
<path d="M66.8642 66.1489C64.0823 68.9308 60.5498 70.3413 55.7094 71.0514C50.8543 71.7636 44.738 71.7647 36.816 71.7647C28.894 71.7647 22.7778 71.7636 17.9227 71.0514C13.0823 70.3413 9.54982 68.9308 6.76787 66.1489C3.98593 63.3669 2.57549 59.8344 1.86538 54.9941C1.1531 50.139 1.15203 44.0227 1.15203 36.1007C1.15203 28.1787 1.1531 22.0624 1.86538 17.2074C2.57549 12.367 3.98593 8.83449 6.76787 6.05254C9.54982 3.2706 13.0823 1.86016 17.9227 1.15005C22.7778 0.437768 28.894 0.436702 36.816 0.436702C44.738 0.436702 50.8543 0.437768 55.7094 1.15005C60.5498 1.86016 64.0823 3.2706 66.8642 6.05254C69.6462 8.83449 71.0566 12.367 71.7667 17.2074C72.479 22.0624 72.48 28.1787 72.48 36.1007C72.48 44.0227 72.479 50.139 71.7667 54.9941C71.0566 59.8344 69.6462 63.3669 66.8642 66.1489Z" stroke="url(#paint3_linear_786_772)" stroke-width="0.873404"/>
</g>
<g style="mix-blend-mode:soft-light" filter="url(#filter3_f_786_772)">
<path d="M66.7613 66.0459C64.0093 68.7979 60.5108 70.1999 55.6883 70.9073C50.8461 71.6177 44.7422 71.6191 36.816 71.6191C28.8899 71.6191 22.786 71.6177 17.9438 70.9073C13.1213 70.1999 9.62278 68.7979 6.87081 66.0459C4.11884 63.294 2.7169 59.7955 2.0094 54.9729C1.29902 50.1308 1.2976 44.0269 1.2976 36.1007C1.2976 28.1746 1.29902 22.0706 2.0094 17.2285C2.7169 12.406 4.11884 8.90745 6.87081 6.15547C9.62278 3.40351 13.1213 2.00157 17.9438 1.29407C22.786 0.583691 28.8899 0.582269 36.816 0.582269C44.7422 0.582269 50.8461 0.583691 55.6883 1.29407C60.5108 2.00157 64.0093 3.40351 66.7613 6.15547C69.5132 8.90745 70.9152 12.406 71.6227 17.2285C72.3331 22.0706 72.3345 28.1746 72.3345 36.1007C72.3345 44.0269 72.3331 50.1308 71.6227 54.9729C70.9152 59.7955 69.5132 63.294 66.7613 66.0459Z" stroke="url(#paint4_linear_786_772)" stroke-width="1.16454"/>
</g>
</g>
</g>
<g clip-path="url(#clip1_786_772)" filter="url(#filter4_ii_786_772)">
<path d="M27.6695 63.9143C32.7693 63.9143 36.9083 59.7458 36.9083 54.6095V45.3047H27.6695C22.5696 45.3047 18.4307 49.4732 18.4307 54.6095C18.4307 59.7458 22.5696 63.9143 27.6695 63.9143Z" fill="#0ACF83"/>
<path d="M18.4307 36.0001C18.4307 30.8639 22.5696 26.6953 27.6695 26.6953H36.9083V45.3049H27.6695C22.5696 45.3049 18.4307 41.1364 18.4307 36.0001Z" fill="#A259FF"/>
<path d="M18.4302 17.3905C18.4302 12.2542 22.5692 8.08569 27.669 8.08569H36.9078V26.6953H27.669C22.5692 26.6953 18.4302 22.5268 18.4302 17.3905Z" fill="#F24E1E"/>
<path d="M36.9082 8.08569H46.147C51.2468 8.08569 55.3858 12.2542 55.3858 17.3905C55.3858 22.5268 51.2468 26.6953 46.147 26.6953H36.9082V8.08569Z" fill="#FF7262"/>
<path d="M55.3858 36.0001C55.3858 41.1364 51.2468 45.3049 46.147 45.3049C41.0472 45.3049 36.9082 41.1364 36.9082 36.0001C36.9082 30.8639 41.0472 26.6953 46.147 26.6953C51.2468 26.6953 55.3858 30.8639 55.3858 36.0001Z" fill="#1ABCFE"/>
</g>
<defs>
<filter id="filter0_ii_786_772" x="0.715332" y="-0.582269" width="72.2017" height="73.366" filterUnits="userSpaceOnUse" color-interpolation-filters="sRGB">
<feFlood flood-opacity="0" result="BackgroundImageFix"/>
<feBlend mode="normal" in="SourceGraphic" in2="BackgroundImageFix" result="shape"/>
<feColorMatrix in="SourceAlpha" type="matrix" values="0 0 0 0 0 0 0 0 0 0 0 0 0 0 0 0 0 0 127 0" result="hardAlpha"/>
<feOffset dy="0.582269"/>
<feGaussianBlur stdDeviation="0.582269"/>
<feComposite in2="hardAlpha" operator="arithmetic" k2="-1" k3="1"/>
<feColorMatrix type="matrix" values="0 0 0 0 1 0 0 0 0 1 0 0 0 0 1 0 0 0 0.25 0"/>
<feBlend mode="normal" in2="shape" result="effect1_innerShadow_786_772"/>
<feColorMatrix in="SourceAlpha" type="matrix" values="0 0 0 0 0 0 0 0 0 0 0 0 0 0 0 0 0 0 127 0" result="hardAlpha"/>
<feOffset dy="-0.582269"/>
<feGaussianBlur stdDeviation="0.582269"/>
<feComposite in2="hardAlpha" operator="arithmetic" k2="-1" k3="1"/>
<feColorMatrix type="matrix" values="0 0 0 0 0 0 0 0 0 0 0 0 0 0 0 0 0 0 0.12 0"/>
<feBlend mode="normal" in2="effect1_innerShadow_786_772" result="effect2_innerShadow_786_772"/>
</filter>
<filter id="filter1_ii_786_772" x="0.715332" y="-0.582269" width="72.2017" height="73.366" filterUnits="userSpaceOnUse" color-interpolation-filters="sRGB">
<feFlood flood-opacity="0" result="BackgroundImageFix"/>
<feBlend mode="normal" in="SourceGraphic" in2="BackgroundImageFix" result="shape"/>
<feColorMatrix in="SourceAlpha" type="matrix" values="0 0 0 0 0 0 0 0 0 0 0 0 0 0 0 0 0 0 127 0" result="hardAlpha"/>
<feOffset dy="0.582269"/>
<feGaussianBlur stdDeviation="0.582269"/>
<feComposite in2="hardAlpha" operator="arithmetic" k2="-1" k3="1"/>
<feColorMatrix type="matrix" values="0 0 0 0 1 0 0 0 0 1 0 0 0 0 1 0 0 0 0.25 0"/>
<feBlend mode="normal" in2="shape" result="effect1_innerShadow_786_772"/>
<feColorMatrix in="SourceAlpha" type="matrix" values="0 0 0 0 0 0 0 0 0 0 0 0 0 0 0 0 0 0 127 0" result="hardAlpha"/>
<feOffset dy="-0.582269"/>
<feGaussianBlur stdDeviation="0.582269"/>
<feComposite in2="hardAlpha" operator="arithmetic" k2="-1" k3="1"/>
<feColorMatrix type="matrix" values="0 0 0 0 0 0 0 0 0 0 0 0 0 0 0 0 0 0 0.12 0"/>
<feBlend mode="normal" in2="effect1_innerShadow_786_772" result="effect2_innerShadow_786_772"/>
</filter>
<filter id="filter2_f_786_772" x="0.133063" y="-0.582269" width="73.3662" height="73.366" filterUnits="userSpaceOnUse" color-interpolation-filters="sRGB">
<feFlood flood-opacity="0" result="BackgroundImageFix"/>
<feBlend mode="normal" in="SourceGraphic" in2="BackgroundImageFix" result="shape"/>
<feGaussianBlur stdDeviation="0.291135" result="effect1_foregroundBlur_786_772"/>
</filter>
<filter id="filter3_f_786_772" x="-1.03148" y="-1.74681" width="75.6953" height="75.695" filterUnits="userSpaceOnUse" color-interpolation-filters="sRGB">
<feFlood flood-opacity="0" result="BackgroundImageFix"/>
<feBlend mode="normal" in="SourceGraphic" in2="BackgroundImageFix" result="shape"/>
<feGaussianBlur stdDeviation="0.873404" result="effect1_foregroundBlur_786_772"/>
</filter>
<filter id="filter4_ii_786_772" x="18.4268" y="7.31349" width="36.9624" height="57.3733" filterUnits="userSpaceOnUse" color-interpolation-filters="sRGB">
<feFlood flood-opacity="0" result="BackgroundImageFix"/>
<feBlend mode="normal" in="SourceGraphic" in2="BackgroundImageFix" result="shape"/>
<feColorMatrix in="SourceAlpha" type="matrix" values="0 0 0 0 0 0 0 0 0 0 0 0 0 0 0 0 0 0 127 0" result="hardAlpha"/>
<feOffset dy="0.772208"/>
<feGaussianBlur stdDeviation="0.772208"/>
<feComposite in2="hardAlpha" operator="arithmetic" k2="-1" k3="1"/>
<feColorMatrix type="matrix" values="0 0 0 0 1 0 0 0 0 1 0 0 0 0 1 0 0 0 0.25 0"/>
<feBlend mode="normal" in2="shape" result="effect1_innerShadow_786_772"/>
<feColorMatrix in="SourceAlpha" type="matrix" values="0 0 0 0 0 0 0 0 0 0 0 0 0 0 0 0 0 0 127 0" result="hardAlpha"/>
<feOffset dy="-0.772208"/>
<feGaussianBlur stdDeviation="0.772208"/>
<feComposite in2="hardAlpha" operator="arithmetic" k2="-1" k3="1"/>
<feColorMatrix type="matrix" values="0 0 0 0 0 0 0 0 0 0 0 0 0 0 0 0 0 0 0.12 0"/>
<feBlend mode="normal" in2="effect1_innerShadow_786_772" result="effect2_innerShadow_786_772"/>
</filter>
<radialGradient id="paint0_radial_786_772" cx="0" cy="0" r="1" gradientUnits="userSpaceOnUse" gradientTransform="translate(36.816 36.1007) rotate(90) scale(36.1007)">
<stop stop-color="white"/>
<stop offset="1" stop-color="#F7F7F7"/>
</radialGradient>
<linearGradient id="paint1_linear_786_772" x1="-0.131475" y1="1.44527e-07" x2="19.6343" y2="84.6438" gradientUnits="userSpaceOnUse">
<stop stop-opacity="0"/>
<stop offset="0.605667" stop-opacity="0.0781197"/>
<stop offset="1" stop-opacity="0.26"/>
</linearGradient>
<linearGradient id="paint2_linear_786_772" x1="-0.131475" y1="1.44527e-07" x2="19.6343" y2="84.6438" gradientUnits="userSpaceOnUse">
<stop stop-color="white" stop-opacity="0.26"/>
<stop offset="0.640625" stop-color="white" stop-opacity="0.0781197"/>
<stop offset="1" stop-color="white" stop-opacity="0"/>
</linearGradient>
<linearGradient id="paint3_linear_786_772" x1="36.816" y1="72.2014" x2="36.816" y2="60.9199" gradientUnits="userSpaceOnUse">
<stop/>
<stop offset="1" stop-opacity="0"/>
</linearGradient>
<linearGradient id="paint4_linear_786_772" x1="36.816" y1="0" x2="36.816" y2="36.1007" gradientUnits="userSpaceOnUse">
<stop stop-color="white"/>
<stop offset="1" stop-color="white" stop-opacity="0"/>
</linearGradient>
<clipPath id="clip0_786_772">
<rect width="72.2014" height="72.2014" fill="white" transform="translate(0.715332)"/>
</clipPath>
<clipPath id="clip1_786_772">
<rect width="36.9626" height="55.8289" fill="white" transform="translate(18.4268 8.08569)"/>
</clipPath>
</defs>
</svg>
