<svg width="55" height="55" viewBox="0 0 55 55" fill="none" xmlns="http://www.w3.org/2000/svg">
<rect width="55" height="55" rx="27.5" fill="white"/>
<g clip-path="url(#clip0_136_65)">
<path d="M19.6611 35.2491L24.9355 40.5268L39.4476 26.0114H28.8955L19.6611 35.2491Z" fill="#39CEFD"/>
<path d="M28.8953 10.1816H39.4475L17.0221 32.6102L11.7444 27.3325L28.8953 10.1816Z" fill="#39CEFD"/>
<path d="M24.9353 40.5268L28.8952 44.4834H39.4474L30.213 35.2491L24.9353 40.5268Z" fill="#03569B"/>
<path d="M32.7627 37.8153L30.213 35.2491L24.9353 40.5268L32.7627 37.8153Z" fill="url(#paint0_linear_136_65)"/>
<path d="M19.6604 35.2473L24.9382 29.9694L30.2164 35.2473L24.9382 40.5251L19.6604 35.2473Z" fill="#16B9FD"/>
<path d="M39.4475 26.0114L30.2131 35.2491L39.4475 44.4867H28.8953L19.6577 35.2491L28.8953 26.0114H39.4475ZM28.8953 10.1816L11.7444 27.3325L17.0221 32.6102L39.4475 10.1816H28.8953V10.1816Z" fill="url(#paint1_radial_136_65)"/>
</g>
<rect x="0.34375" y="0.34375" width="54.3125" height="54.3125" rx="27.1562" stroke="black" stroke-opacity="0.06" stroke-width="0.6875"/>
<defs>
<linearGradient id="paint0_linear_136_65" x1="26.4755" y1="41.5453" x2="30.4062" y2="37.6146" gradientUnits="userSpaceOnUse">
<stop stop-color="#1A237E" stop-opacity="0.4"/>
<stop offset="1" stop-color="#1A237E" stop-opacity="0"/>
</linearGradient>
<radialGradient id="paint1_radial_136_65" cx="0" cy="0" r="1" gradientUnits="userSpaceOnUse" gradientTransform="translate(12.5227 12.5197) scale(41.9682 41.9682)">
<stop stop-color="white" stop-opacity="0.1"/>
<stop offset="1" stop-color="white" stop-opacity="0"/>
</radialGradient>
<clipPath id="clip0_136_65">
<rect width="30.9989" height="34.3054" fill="white" transform="translate(11.835 10.1816)"/>
</clipPath>
</defs>
</svg>


