<svg width="55" height="55" viewBox="0 0 55 55" fill="none" xmlns="http://www.w3.org/2000/svg">
<rect width="55" height="55" rx="27.5" fill="white"/>
<g clip-path="url(#clip0_136_77)">
<path d="M27.4588 31.5013C29.5775 31.5013 31.2951 29.7837 31.2951 27.665C31.2951 25.5463 29.5775 23.8288 27.4588 23.8288C25.3401 23.8288 23.6226 25.5463 23.6226 27.665C23.6226 29.7837 25.3401 31.5013 27.4588 31.5013Z" fill="#61DAFB"/>
<path d="M27.4589 41.7725C30.4701 44.7013 33.4401 46.4338 35.8327 46.4338C36.6164 46.4338 37.3589 46.2688 37.9776 45.8975C40.1226 44.66 40.9064 41.5663 40.1639 37.1525C40.0402 36.3688 39.8751 35.585 39.6689 34.76C40.4939 34.5125 41.2364 34.265 41.9789 34.0175C46.1451 32.4088 48.4552 30.1813 48.4552 27.7475C48.4552 25.2725 46.1451 23.045 41.9789 21.4775C41.2364 21.1888 40.4939 20.9413 39.6689 20.735C39.8751 19.91 40.0402 19.1263 40.1639 18.3425C40.8652 13.8463 40.0814 10.7113 37.9364 9.47375C37.3176 9.1025 36.5751 8.9375 35.7914 8.9375C33.4401 8.9375 30.4289 10.67 27.4176 13.5987C24.4476 10.67 21.4776 8.9375 19.0851 8.9375C18.3014 8.9375 17.5589 9.1025 16.9401 9.47375C14.7951 10.7113 14.0114 13.805 14.7539 18.2188C14.8776 19.0025 15.0426 19.7863 15.2489 20.6113C14.4239 20.8588 13.6814 21.1063 12.9389 21.3538C8.77265 22.9625 6.46265 25.19 6.46265 27.6238C6.46265 30.0988 8.77265 32.3263 12.9389 33.8938C13.6814 34.1825 14.4239 34.43 15.2489 34.6363C15.0426 35.4613 14.8776 36.245 14.7539 37.0288C14.0526 41.4425 14.8364 44.5775 16.9401 45.7738C17.5589 46.145 18.3014 46.31 19.0851 46.31C21.4776 46.3925 24.4476 44.66 27.4589 41.7725ZM25.1489 36.2038C25.8914 36.245 26.6751 36.245 27.4589 36.245C28.2426 36.245 29.0264 36.245 29.7689 36.2038C29.0264 37.1938 28.2426 38.1013 27.4589 38.9675C26.6751 38.1013 25.8914 37.1938 25.1489 36.2038ZM20.0339 31.955C20.4464 32.6563 20.8176 33.3163 21.2714 33.9763C19.9926 33.8113 18.7964 33.605 17.6414 33.3575C18.0126 32.2438 18.4251 31.0888 18.9201 29.9338C19.2501 30.5938 19.6214 31.295 20.0339 31.955ZM17.6414 22.0138C18.7964 21.7663 19.9926 21.56 21.2714 21.395C20.8589 22.055 20.4464 22.715 20.0339 23.4163C19.6214 24.1175 19.2501 24.7775 18.9201 25.4788C18.3839 24.2825 17.9714 23.1275 17.6414 22.0138ZM19.9101 27.665C20.4464 26.5513 21.0239 25.4375 21.6839 24.3238C22.3026 23.2513 23.0039 22.1788 23.7051 21.1063C24.9426 21.0238 26.1801 20.9825 27.4589 20.9825C28.7789 20.9825 30.0164 21.0238 31.2126 21.1063C31.9551 22.1788 32.6151 23.2513 33.2339 24.3238C33.8939 25.4375 34.4714 26.5513 35.0077 27.665C34.4714 28.7788 33.8939 29.8925 33.2339 31.0063C32.6151 32.0788 31.9139 33.1513 31.2126 34.2238C29.9751 34.3063 28.7376 34.3475 27.4589 34.3475C26.1389 34.3475 24.9014 34.3063 23.7051 34.2238C22.9626 33.1513 22.3026 32.0788 21.6839 31.0063C21.0239 29.8925 20.4464 28.7788 19.9101 27.665ZM36.0389 25.4375L34.9251 23.375C34.5126 22.6738 34.1414 22.0138 33.6876 21.3538C34.9664 21.5188 36.1626 21.725 37.3176 21.9725C36.9464 23.1275 36.5339 24.2825 36.0389 25.4375ZM36.0389 29.8925C36.5339 31.0475 36.9464 32.2025 37.3176 33.3163C36.1626 33.5638 34.9664 33.77 33.6876 33.935C34.1001 33.275 34.5126 32.615 34.9251 31.9138C35.2964 31.295 35.6677 30.5938 36.0389 29.8925ZM36.9876 44.2063C36.6576 44.4125 36.2451 44.495 35.7914 44.495C33.7701 44.495 31.2539 42.845 28.7789 40.37C29.9751 39.0913 31.1301 37.6475 32.2851 36.0388C34.2239 35.8738 36.0801 35.585 37.8126 35.1725C38.0189 35.915 38.1426 36.6575 38.2664 37.4C38.8439 40.9063 38.3901 43.4225 36.9876 44.2063ZM39.1327 22.4675C43.7527 23.7875 46.5164 25.8088 46.5164 27.665C46.5164 29.2738 44.6189 30.8825 41.2776 32.1613C40.6176 32.4088 39.8752 32.6563 39.1327 32.8625C38.5964 31.1713 37.9364 29.4388 37.1114 27.665C37.9364 25.8913 38.6377 24.1588 39.1327 22.4675ZM35.8327 10.835C36.2864 10.835 36.6576 10.9175 37.0289 11.1238C38.3901 11.9075 38.8852 14.3825 38.3077 17.93C38.1839 18.6313 38.0189 19.3738 37.8539 20.1575C36.1214 19.7863 34.2651 19.4975 32.3264 19.2913C31.2126 17.6825 30.0164 16.2388 28.8201 14.96C31.2951 12.5263 33.8114 10.835 35.8327 10.835ZM29.7689 19.1263C29.0264 19.085 28.2426 19.085 27.4589 19.085C26.6751 19.085 25.8914 19.085 25.1489 19.1263C25.8914 18.1363 26.6751 17.2288 27.4589 16.3625C28.2426 17.2288 29.0264 18.1775 29.7689 19.1263ZM17.9301 11.1238C18.2601 10.9175 18.6726 10.835 19.1264 10.835C21.1476 10.835 23.6639 12.485 26.1389 14.96C24.9426 16.2388 23.7876 17.6825 22.6326 19.2913C20.6939 19.4563 18.8376 19.745 17.1051 20.1575C16.8989 19.415 16.7751 18.6725 16.6514 17.93C16.0739 14.4238 16.5276 11.9488 17.9301 11.1238ZM15.7851 32.8625C11.1651 31.5425 8.4014 29.5213 8.4014 27.665C8.4014 26.0563 10.2989 24.4475 13.6401 23.1688C14.3001 22.9213 15.0426 22.6738 15.7851 22.4675C16.3214 24.1588 16.9814 25.8913 17.8064 27.665C16.9814 29.4388 16.2801 31.2125 15.7851 32.8625ZM16.6514 37.4C16.7751 36.6988 16.9401 35.9563 17.1051 35.1725C18.8376 35.5438 20.6939 35.8325 22.6326 36.0388C23.7464 37.6475 24.9426 39.0913 26.1389 40.37C23.6639 42.8038 21.1476 44.495 19.1264 44.495C18.6726 44.495 18.3014 44.4125 17.9301 44.2063C16.5276 43.4225 16.0739 40.9063 16.6514 37.4Z" fill="#61DAFB"/>
</g>
<defs>
<clipPath id="clip0_136_77">
<rect width="41.25" height="41.25" fill="white" transform="translate(6.875 6.875)"/>
</clipPath>
</defs>
</svg>
